HIERARCHY
ROOT Hips
{
 OFFSET 0.000000 0.000000 0.000000
 CHANNELS 6 Xposition Yposition Zposition Yrotation Xrotation Zrotation
 JOINT Chest
 {
  OFFSET 0.000000 9.585900 0.002600
  CHANNELS 3 Yrotation Xrotation Zrotation
  JOINT Chest2
  {
   OFFSET 0.000000 9.601200 -0.005300
   CHANNELS 3 Yrotation Xrotation Zrotation
   JOINT Chest3
   {
    OFFSET 0.000000 9.561800 0.000000
    CHANNELS 3 Yrotation Xrotation Zrotation
    JOINT Chest4
    {
     OFFSET 0.000000 9.552100 0.000000
     CHANNELS 3 Yrotation Xrotation Zrotation
     JOINT Neck
     {
      OFFSET 0.000000 14.453000 0.000000
      CHANNELS 3 Yrotation Xrotation Zrotation
      JOINT Head
      {
       OFFSET 0.000000 8.936500 -0.011300
       CHANNELS 3 Yrotation Xrotation Zrotation
       End Site
       {
        OFFSET 0.000000 17.073600 -0.006000
       }
      }
     }
     JOINT RightCollar
     {
      OFFSET -2.921100 9.558500 0.000000
      CHANNELS 3 Yrotation Xrotation Zrotation
      JOINT RightShoulder
      {
       OFFSET -13.519700 0.000000 0.000000
       CHANNELS 3 Yrotation Xrotation Zrotation
       JOINT RightElbow
       {
        OFFSET 0.000000 -29.696600 0.000000
        CHANNELS 3 Yrotation Xrotation Zrotation
        JOINT RightWrist
        {
         OFFSET 0.000000 -24.004700 0.000000
         CHANNELS 3 Yrotation Xrotation Zrotation
         End Site
         {
          OFFSET 0.000000 -17.728500 0.000000
         }
        }
       }
      }
     }
     JOINT LeftCollar
     {
      OFFSET 2.921100 9.558500 0.000000
      CHANNELS 3 Yrotation Xrotation Zrotation
      JOINT LeftShoulder
      {
       OFFSET 13.519700 0.000000 0.000000
       CHANNELS 3 Yrotation Xrotation Zrotation
       JOINT LeftElbow
       {
        OFFSET 0.000000 -29.696600 0.000000
        CHANNELS 3 Yrotation Xrotation Zrotation
        JOINT LeftWrist
        {
         OFFSET 0.000000 -24.004700 0.000000
         CHANNELS 3 Yrotation Xrotation Zrotation
         End Site
         {
          OFFSET 0.000000 -17.728500 0.000000
         }
        }
       }
      }
     }
    }
   }
  }
 }
 JOINT RightHip
 {
  OFFSET -7.771700 -0.012900 -0.001300
  CHANNELS 3 Yrotation Xrotation Zrotation
  JOINT RightKnee
  {
   OFFSET 0.000000 -40.869800 0.001200
   CHANNELS 3 Yrotation Xrotation Zrotation
   JOINT RightAnkle
   {
    OFFSET 0.000000 -39.717900 0.002100
    CHANNELS 3 Yrotation Xrotation Zrotation
    JOINT RightToe
    {
     OFFSET 0.000000 -4.965400 11.033500
     CHANNELS 3 Yrotation Xrotation Zrotation
     End Site
     {
      OFFSET 0.000000 -1.423100 5.872300
     }
    }
   }
  }
 }
 JOINT LeftHip
 {
  OFFSET 7.771700 -0.012900 -0.001300
  CHANNELS 3 Yrotation Xrotation Zrotation
  JOINT LeftKnee
  {
   OFFSET 0.000000 -40.869800 0.001200
   CHANNELS 3 Yrotation Xrotation Zrotation
   JOINT LeftAnkle
   {
    OFFSET 0.000000 -39.717900 0.002100
    CHANNELS 3 Yrotation Xrotation Zrotation
    JOINT LeftToe
    {
     OFFSET 0.000000 -4.965400 11.033500
     CHANNELS 3 Yrotation Xrotation Zrotation
     End Site
     {
      OFFSET 0.000000 -1.423100 5.872300
     }
    }
   }
  }
 }
}
MOTION
Frames: 7
Frame Time: 0.008333
-31.990162 62.046448 12.475899 176.810588 -50.733038 -0.398801 3.502754 27.321745 1.226216 0.496846 4.749634 0.198892 0.815306 7.494107 0.331309 2.642618 22.117474 1.343525 1.216192 15.235123 0.621422 2.082413 -7.520321 0.686787 6.970483 4.644809 5.042831 -2.421955 -9.376033 -14.679632 -96.059609 -53.656908 138.845962 2.963314 6.178567 -15.593584 -10.352108 1.969343 -0.959965 -3.528570 -3.903365 16.969308 125.988693 -68.974115 -150.757490 14.975485 4.974240 18.243671 3.191532 -16.260672 -6.300511 -0.953830 61.403303 -4.903292 1.347969 -7.840530 10.443803 0.205264 -0.474143 0.102303 -4.245711 -13.274420 1.531361 25.773851 76.982014 26.178090 1.222971 -12.266833 -3.667923 0.219256 0.636078 0.108745
-31.989657 62.046919 12.475533 176.810115 -50.722917 -0.401473 3.492453 27.321214 1.226089 0.501209 4.745041 0.196803 0.817362 7.491544 0.330823 2.622202 22.125148 1.344014 1.248723 15.230495 0.610723 2.105729 -7.526062 0.676091 6.986630 4.641188 5.030264 -2.420312 -9.377972 -14.676533 -96.059634 -53.653170 138.830702 2.975185 6.198408 -15.575914 -10.345388 1.989511 -0.939796 -3.470542 -3.883639 16.917354 126.167608 -68.984768 -150.917320 14.932193 5.007681 18.145825 3.193626 -16.270328 -6.295473 -0.968682 61.403719 -4.917717 1.353891 -7.839757 10.446241 0.203251 -0.476183 0.099601 -4.245706 -13.283388 1.536610 25.775201 76.981313 26.179062 1.228778 -12.269217 -3.678045 0.229530 0.636562 0.114785
-31.990239 62.046341 12.475883 176.808031 -50.704150 -0.396709 3.480089 27.313164 1.216944 0.505565 4.739918 0.195840 0.809045 7.496546 0.329881 2.613941 22.125734 1.338460 1.283355 15.224289 0.606023 2.128223 -7.530712 0.665618 7.009006 4.639909 5.019801 -2.439399 -9.377348 -14.658447 -96.064157 -53.658016 138.839075 2.982697 6.215550 -15.550995 -10.336761 1.998232 -0.925217 -3.414967 -3.859710 16.874276 126.360046 -69.002075 -151.078094 14.890837 5.035134 18.037248 3.199589 -16.289317 -6.297018 -0.974759 61.405962 -4.925798 1.351326 -7.842369 10.451145 0.201796 -0.474872 0.096901 -4.248234 -13.303319 1.538334 25.774486 76.982810 26.175132 1.217500 -12.268744 -3.680596 0.242754 0.634160 0.115819
-31.990610 62.047244 12.474903 176.808244 -50.696557 -0.394913 3.449187 27.327690 1.202468 0.501448 4.738287 0.194170 0.820838 7.483558 0.328281 2.576182 22.135320 1.329504 1.348282 15.213866 0.589226 2.277007 -7.540612 0.611770 7.063211 4.627000 5.000064 -2.464312 -9.365913 -14.643353 -96.079344 -53.663372 138.857369 2.988206 6.229612 -15.523377 -10.294849 1.995440 -0.924358 -3.375957 -3.845312 16.840787 126.540228 -69.023800 -151.200796 14.849657 5.051610 17.928031 3.201112 -16.295289 -6.298624 -0.976218 61.406476 -4.927405 1.350793 -7.844524 10.452185 0.200613 -0.474560 0.095817 -4.249609 -13.310212 1.536862 25.777790 76.981913 26.178154 1.215190 -12.267275 -3.680877 0.233118 0.630721 0.113259
-31.990963 62.048076 12.473845 176.806477 -50.688276 -0.392101 3.435087 27.333012 1.193800 0.499309 4.737386 0.193430 0.817830 7.482198 0.326134 2.565560 22.134614 1.325751 1.394635 15.208728 0.581192 2.391437 -7.550323 0.570893 7.090698 4.617627 4.989490 -2.489998 -9.355882 -14.628506 -96.096807 -53.667861 138.876417 2.991546 6.248901 -15.493506 -10.271641 1.989580 -0.926049 -3.317107 -3.807900 16.802052 126.770410 -69.039021 -151.386779 14.806677 5.059871 17.821037 3.203120 -16.302102 -6.300647 -0.975405 61.406597 -4.926137 1.351638 -7.847104 10.451885 0.200304 -0.473635 0.095339 -4.248940 -13.317553 1.536144 25.779983 76.981090 26.181073 1.208171 -12.266703 -3.674968 0.232829 0.627241 0.106855
-31.990643 62.048211 12.473292 176.800061 -50.674379 -0.390027 3.426527 27.332656 1.189639 0.497293 4.736716 0.193144 0.812947 7.479865 0.324575 2.557756 22.135450 1.323836 1.444258 15.202809 0.572660 2.487374 -7.560736 0.536499 7.114180 4.608024 4.977445 -2.531344 -9.342494 -14.603221 -96.111377 -53.676302 138.917394 3.000467 6.275767 -15.475245 -10.258446 2.000925 -0.909598 -3.220031 -3.779596 16.730901 127.038343 -69.047644 -151.628512 14.785688 5.072854 17.715213 3.207072 -16.316224 -6.298701 -0.974949 61.407466 -4.924434 1.354102 -7.848398 10.451055 0.199701 -0.474014 0.093396 -4.246258 -13.330220 1.540337 25.815795 76.979194 26.216017 1.201769 -12.272017 -3.671968 0.233651 0.629750 0.103002
-31.989991 62.048362 12.472654 176.794719 -50.660462 -0.390447 3.421479 27.328484 1.188173 0.499629 4.733280 0.193686 0.790405 7.494827 0.325420 2.572767 22.120437 1.318517 1.487722 15.202160 0.569889 2.590121 -7.572240 0.499566 7.118730 4.606468 4.968836 -2.536840 -9.341810 -14.594740 -96.127545 -53.670247 138.928369 3.009136 6.298087 -15.455131 -10.256105 2.020834 -0.891109 -3.130161 -3.764985 16.667265 127.276614 -69.056431 -151.828519 14.802707 5.098573 17.608742 3.212295 -16.332420 -6.293639 -0.982563 61.411592 -4.930593 1.358078 -7.844240 10.452055 0.196115 -0.480711 0.091677 -4.249205 -13.343332 1.547571 25.848364 76.978137 26.245328 1.197292 -12.273511 -3.676836 0.237088 0.629023 0.105266
